<svg width="23" height="24" viewBox="0 0 23 24" fill="none" xmlns="http://www.w3.org/2000/svg">
<path d="M11.4049 1.50499C11.8296 1.50499 12.2494 1.51429 12.653 1.53321C12.7712 1.52867 12.889 1.54822 12.9993 1.59068C13.1095 1.63314 13.2099 1.6976 13.2941 1.78009C13.3783 1.86257 13.4446 1.96134 13.4889 2.07028C13.5332 2.17922 13.5546 2.29602 13.5518 2.41349C13.5644 2.53183 13.5685 2.67583 13.573 2.82815C13.5792 3.03756 13.586 3.27454 13.6163 3.52885C13.6945 4.2143 14.023 4.84744 14.5394 5.30842C15.0558 5.76939 15.7244 6.02619 16.4185 6.03019C16.7824 6.02991 17.143 5.96147 17.4814 5.82847C17.7586 5.71593 18.0281 5.58557 18.2882 5.43821C18.3553 5.40197 18.4221 5.36542 18.4895 5.33014C18.6581 5.2356 18.8472 5.18299 19.0407 5.17685C19.2623 5.18049 19.4733 5.2711 19.6279 5.42891C19.6978 5.49523 19.7582 5.57076 19.8074 5.65339C20.2514 6.39482 20.6831 7.12052 21.0787 7.84495C21.1429 7.94886 21.1853 8.06462 21.2032 8.18523C21.2212 8.30585 21.2144 8.42882 21.1832 8.54675C21.152 8.66467 21.0972 8.7751 21.0219 8.87137C20.9466 8.96763 20.8524 9.04773 20.7451 9.10685L20.6515 9.17099C20.3154 9.39411 19.9914 9.63475 19.6808 9.89189C19.3631 10.1674 19.0997 10.4993 18.9041 10.8706C18.6809 11.2788 18.5874 11.7447 18.6361 12.2068C18.6847 12.6689 18.8733 13.1055 19.1768 13.4589C19.4662 13.7917 19.7857 14.0974 20.1313 14.3722C20.3052 14.5162 20.4737 14.631 20.6221 14.7323C20.7246 14.7984 20.823 14.8704 20.9168 14.9481C21.0752 15.0743 21.181 15.2544 21.2138 15.4536C21.2465 15.6527 21.2037 15.8569 21.0939 16.0266C20.6682 16.8149 20.2333 17.5659 19.8009 18.2605C19.7325 18.4065 19.6217 18.5288 19.4829 18.6118C19.344 18.6948 19.1834 18.7348 19.0216 18.7265H18.9793C18.7703 18.7042 18.569 18.6361 18.3898 18.527L18.3046 18.4818C17.9618 18.2875 17.5993 18.1296 17.2233 18.0107C16.9438 17.9285 16.6541 17.8863 16.3627 17.8853C15.7107 17.8833 15.0797 18.1149 14.5856 18.5377C14.0915 18.9605 13.7673 19.5461 13.6725 20.1872C13.6238 20.4707 13.5929 20.757 13.5798 21.0444C13.5714 21.1742 13.5637 21.2971 13.5515 21.4048C13.5553 21.6725 13.4624 21.9327 13.2898 22.1382C13.1669 22.264 12.9994 22.3371 12.8231 22.3422C12.2633 22.365 11.6679 22.3871 11.0848 22.3871C10.6489 22.3871 10.2603 22.3749 9.89697 22.3496C9.73768 22.3329 9.58733 22.2685 9.46573 22.1649C9.34413 22.0612 9.25707 21.9234 9.21615 21.7695L9.15675 21.0364C9.15223 20.9815 9.14996 20.9264 9.14706 20.8712C9.14073 20.6382 9.11542 20.4061 9.07127 20.1772C8.94952 19.5333 8.60592 18.9515 8.09951 18.5319C7.5931 18.1124 6.95545 17.8811 6.29613 17.8779C5.89281 17.8792 5.49372 17.9594 5.12159 18.1139C4.8728 18.2156 4.64047 18.3298 4.43588 18.4305C4.28325 18.5055 4.13897 18.5764 4.00408 18.6344C3.86709 18.6996 3.71828 18.7367 3.56654 18.7435C3.48915 18.7432 3.41252 18.7284 3.34067 18.6998C3.31711 18.6909 3.25447 18.6678 3.15443 18.5299C2.83951 18.0763 2.55344 17.6037 2.29777 17.1147C2.07512 16.7113 1.846 16.2937 1.57882 15.8794C1.51643 15.728 1.50998 15.5595 1.5607 15.4038C1.60514 15.1806 1.73096 14.9816 1.91403 14.8449C2.1483 14.7115 2.42037 14.5563 2.68852 14.3799C3.02713 14.1698 3.31848 13.8926 3.5444 13.5656C3.77032 13.2385 3.9259 12.8687 4.00148 12.4792C4.10306 11.9548 4.05219 11.4125 3.85479 10.9158C3.6574 10.4191 3.3217 9.98866 2.88697 9.67478C2.67737 9.51814 2.45688 9.37646 2.2271 9.25083C2.18289 9.2255 2.13864 9.20018 2.09444 9.1742C1.94344 9.10705 1.81172 9.00346 1.71125 8.87286C1.61077 8.74225 1.54472 8.58877 1.5191 8.42635C1.48731 8.24524 1.52078 8.0588 1.61364 7.8998C2.02926 7.15998 2.45906 6.39546 2.90824 5.6675C2.97548 5.51796 3.08629 5.39188 3.22636 5.30556C3.36643 5.21924 3.52933 5.17665 3.694 5.18327C3.72821 5.18327 3.76336 5.18325 3.79886 5.1871C4.00232 5.2163 4.197 5.28908 4.36939 5.40037C4.86495 5.69685 5.41233 5.89779 5.98282 5.99267C6.12974 6.01403 6.27803 6.02474 6.42652 6.02473C6.95554 6.0298 7.47305 5.87159 7.90776 5.57193C8.34246 5.27226 8.67291 4.84593 8.85344 4.35172C9.05484 3.81226 9.1533 3.24023 9.14383 2.66491C9.12388 2.38426 9.19889 2.10502 9.35685 1.87153C9.4377 1.76113 9.54489 1.67247 9.66882 1.61352C9.79275 1.55457 9.92951 1.52719 10.0667 1.53386C10.523 1.5143 10.9732 1.50468 11.4049 1.50468V1.50499ZM11.4049 0.00739228C10.937 0.00739228 10.4696 0.0175379 10.0025 0.037848C9.64155 0.0415817 9.2863 0.128342 8.96468 0.2913C8.64306 0.454258 8.36375 0.688994 8.14867 0.977142C7.80441 1.46166 7.62539 2.04305 7.63785 2.63606C7.64815 3.03092 7.58588 3.42433 7.45398 3.79694C7.38535 4.01288 7.24801 4.20082 7.06267 4.33256C6.87734 4.46429 6.654 4.53269 6.4262 4.52745C6.35059 4.52732 6.27511 4.52164 6.20034 4.51046C5.81472 4.44169 5.4455 4.30157 5.1119 4.09741C4.74484 3.87338 4.33141 3.73502 3.90277 3.69271C3.83178 3.6878 3.762 3.68534 3.69337 3.68534C3.27131 3.67923 2.85555 3.78762 2.49086 3.99884C2.12617 4.21006 1.82634 4.5161 1.62364 4.88405C1.16123 5.63317 0.729191 6.40122 0.297759 7.16894C0.0403346 7.61994 -0.0541951 8.14488 0.0299043 8.65661C0.090404 9.03696 0.239086 9.39812 0.464223 9.71152C0.68936 10.0249 0.984786 10.282 1.32711 10.4624C1.5468 10.5803 1.7588 10.7118 1.96185 10.8562C2.17817 11.0005 2.34665 11.2051 2.44611 11.4444C2.54557 11.6837 2.57154 11.9469 2.52072 12.2008C2.48171 12.3923 2.40295 12.5736 2.2895 12.7331C2.17604 12.8926 2.03039 13.0269 1.8618 13.1273C1.63592 13.2751 1.39999 13.4108 1.16443 13.5442C0.154419 14.1188 -0.326708 15.6963 0.30737 16.6837C0.878203 17.5723 1.30608 18.5507 1.93435 19.4095C2.1484 19.7185 2.44965 19.9578 2.80015 20.0971C3.0446 20.1911 3.30441 20.2395 3.56654 20.2398C3.92517 20.234 4.27872 20.1545 4.60495 20.0063C4.97313 19.846 5.32419 19.6491 5.69496 19.4974C5.88529 19.4175 6.08955 19.3756 6.29613 19.3739C6.60979 19.3743 6.91305 19.486 7.15122 19.6888C7.3894 19.8916 7.54688 20.1723 7.59531 20.4803C7.62899 20.7041 7.64866 20.9298 7.65432 21.156L7.62493 21.1582C7.64236 21.3676 7.64882 21.5786 7.6785 21.7864C7.73746 22.319 7.9802 22.8148 8.36539 23.1896C8.75059 23.5644 9.25451 23.795 9.79148 23.8424C10.221 23.8719 10.6524 23.8834 11.0842 23.8834C11.6841 23.8834 12.2849 23.8616 12.8838 23.8372C13.4349 23.8174 13.9579 23.5906 14.3475 23.2026C14.7685 22.757 15.0168 22.1775 15.0484 21.5671C15.0897 21.1977 15.0852 20.8212 15.1529 20.4572C15.1854 20.1611 15.3268 19.8874 15.55 19.6885C15.7731 19.4897 16.0623 19.3798 16.362 19.38C16.5103 19.3806 16.6578 19.4022 16.7999 19.4442C17.1072 19.5485 17.4032 19.6832 17.6834 19.8463C18.0658 20.0657 18.4943 20.1936 18.9351 20.2196C18.9638 20.2196 18.9926 20.2196 19.021 20.2196C19.4392 20.227 19.8516 20.1216 20.2144 19.9147C20.5772 19.7077 20.8769 19.4069 21.0813 19.0443C21.5525 18.2881 21.9974 17.5143 22.4208 16.7305C22.6878 16.2687 22.7859 15.7293 22.6985 15.2037C22.6112 14.6782 22.3437 14.1988 21.9413 13.8469C21.6832 13.6099 21.3653 13.4416 21.0946 13.2177C20.8195 13.0002 20.5646 12.7586 20.333 12.4959C20.2218 12.3699 20.1528 12.2128 20.1355 12.0462C20.1181 11.8796 20.1533 11.7117 20.2362 11.5659C20.3433 11.3605 20.4876 11.1764 20.6618 11.0229C20.964 10.7769 21.2785 10.5461 21.604 10.3315C22.1291 10.0038 22.5058 9.48652 22.6549 8.88842C22.804 8.29032 22.7138 7.65806 22.4034 7.12468C21.989 6.36626 21.5466 5.62291 21.1023 4.87988C20.9804 4.6757 20.8303 4.48942 20.6566 4.32639C20.2233 3.90932 19.6446 3.67481 19.0413 3.67187C18.6036 3.67747 18.1738 3.78908 17.7892 3.99704C17.5118 4.15559 17.226 4.29905 16.9329 4.42676C16.7697 4.49126 16.5957 4.52466 16.4201 4.52522C16.0939 4.52473 15.7795 4.40364 15.5381 4.18551C15.2967 3.96738 15.1456 3.66782 15.1142 3.3451C15.0707 2.98176 15.0903 2.61104 15.0496 2.24706C15.017 1.65325 14.7587 1.09392 14.3268 0.682273C13.8949 0.270629 13.3218 0.0374168 12.7234 0.0298426C12.2845 0.00953253 11.8451 -0.000414364 11.4049 1.32171e-05V0.00739228Z" fill="#595959"/>
<path d="M11.3639 9.74661C11.802 9.74661 12.2303 9.87571 12.5945 10.1176C12.9587 10.3595 13.2426 10.7032 13.4103 11.1054C13.5779 11.5076 13.6218 11.9502 13.5363 12.3772C13.4509 12.8042 13.2399 13.1964 12.9301 13.5043C12.6203 13.8121 12.2257 14.0218 11.7961 14.1067C11.3664 14.1916 10.9211 14.148 10.5163 13.9814C10.1116 13.8148 9.76567 13.5327 9.52229 13.1707C9.27891 12.8087 9.14902 12.3832 9.14902 11.9478C9.14962 11.3642 9.38317 10.8047 9.79841 10.392C10.2137 9.9793 10.7767 9.74721 11.3639 9.74661ZM11.3639 8.24933C10.6279 8.24927 9.90831 8.46612 9.29626 8.87248C8.68422 9.27883 8.2072 9.85644 7.92548 10.5322C7.64375 11.208 7.57 11.9517 7.71356 12.6691C7.85712 13.3866 8.2115 14.0456 8.73196 14.5629C9.25241 15.0802 9.91551 15.4324 10.6374 15.5752C11.3593 15.7179 12.1076 15.6447 12.7877 15.3648C13.4677 15.0849 14.049 14.6108 14.4579 14.0026C14.8668 13.3944 15.0852 12.6793 15.0852 11.9478C15.0852 10.967 14.6931 10.0263 13.9952 9.3327C13.2974 8.63911 12.3509 8.24941 11.3639 8.24933Z" fill="#595959"/>
</svg>
