<svg width="22" height="24" viewBox="0 0 22 24" fill="none" xmlns="http://www.w3.org/2000/svg">
<path d="M19.4348 0.650391H2.5128C1.84666 0.651493 1.20808 0.914987 0.737074 1.38313C0.266071 1.85127 0.00102392 2.48589 1.40346e-08 3.1479V22.5596C-2.97416e-05 22.7182 0.047256 22.8733 0.135897 23.0051C0.224538 23.137 0.350547 23.2398 0.497974 23.3005C0.645401 23.3612 0.807692 23.377 0.9642 23.3461C1.12071 23.3151 1.26443 23.2388 1.37725 23.1266L3.00904 21.5049L4.67959 23.1651C4.83087 23.3154 5.03605 23.3998 5.24996 23.3998C5.46387 23.3998 5.66905 23.3154 5.82033 23.1651L7.57345 21.4228L9.34602 23.184C9.4973 23.3343 9.7024 23.4187 9.91631 23.4187C10.1302 23.4187 10.3354 23.3343 10.4867 23.184L12.3557 21.3266L14.1331 23.0929C14.2843 23.2432 14.4895 23.3277 14.7034 23.3277C14.9173 23.3277 15.1224 23.2432 15.2737 23.0929L16.8959 21.4809L18.4893 23.0638C18.6406 23.2141 18.8458 23.2985 19.0597 23.2985C19.2736 23.2985 19.4787 23.2141 19.63 23.0638L21.711 20.9957C21.8623 20.8454 21.9474 20.6416 21.9476 20.429V3.1479C21.9466 2.48589 21.6815 1.85127 21.2105 1.38313C20.7395 0.914987 20.1009 0.651493 19.4348 0.650391ZM20.3341 20.0968L19.0595 21.3635L17.4664 19.7803C17.3152 19.63 17.11 19.5455 16.8961 19.5455C16.6822 19.5455 16.477 19.63 16.3257 19.7803L14.7033 21.3923L12.9262 19.6263C12.7749 19.476 12.5698 19.3916 12.3558 19.3916C12.1419 19.3916 11.9368 19.476 11.7855 19.6263L9.91647 21.4838L8.14366 19.7222C7.99238 19.5719 7.7872 19.4875 7.57329 19.4875C7.35938 19.4875 7.15428 19.5719 7.00299 19.7222L5.25012 21.4642L3.57957 19.804C3.42829 19.6537 3.22319 19.5693 3.00927 19.5693C2.79536 19.5693 2.59018 19.6537 2.4389 19.804L1.61343 20.6243V3.14692C1.61369 2.90993 1.70852 2.68273 1.87711 2.51512C2.04571 2.34751 2.27433 2.2532 2.5128 2.25286H19.4348C19.6733 2.2532 19.9019 2.34751 20.0705 2.51512C20.2391 2.68273 20.3339 2.90993 20.3341 3.14692V20.0968Z" fill="#595959"/>
<path d="M13.3543 7.25714H4.62556C4.41161 7.25714 4.20648 7.34161 4.05519 7.49196C3.9039 7.64231 3.81885 7.84623 3.81885 8.05886C3.81885 8.27148 3.9039 8.4754 4.05519 8.62575C4.20648 8.7761 4.41161 8.86057 4.62556 8.86057H13.3543C13.5682 8.86057 13.7734 8.7761 13.9247 8.62575C14.076 8.4754 14.161 8.27148 14.161 8.05886C14.161 7.84623 14.076 7.64231 13.9247 7.49196C13.7734 7.34161 13.5682 7.25714 13.3543 7.25714Z" fill="#595959"/>
<path d="M13.3543 10.4775H4.62556C4.41161 10.4775 4.20648 10.5619 4.05519 10.7123C3.9039 10.8626 3.81885 11.0666 3.81885 11.2792C3.81885 11.4918 3.9039 11.6957 4.05519 11.8461C4.20648 11.9964 4.41161 12.0809 4.62556 12.0809H13.3543C13.5682 12.0809 13.7734 11.9964 13.9247 11.8461C14.076 11.6957 14.161 11.4918 14.161 11.2792C14.161 11.0666 14.076 10.8626 13.9247 10.7123C13.7734 10.5619 13.5682 10.4775 13.3543 10.4775Z" fill="#595959"/>
<path d="M13.3543 13.6975H4.62556C4.41161 13.6975 4.20648 13.782 4.05519 13.9323C3.9039 14.0827 3.81885 14.2866 3.81885 14.4992C3.81885 14.7119 3.9039 14.9158 4.05519 15.0661C4.20648 15.2165 4.41161 15.3009 4.62556 15.3009H13.3543C13.5682 15.3009 13.7734 15.2165 13.9247 15.0661C14.076 14.9158 14.161 14.7119 14.161 14.4992C14.161 14.2866 14.076 14.0827 13.9247 13.9323C13.7734 13.782 13.5682 13.6975 13.3543 13.6975Z" fill="#595959"/>
<path d="M16.9831 7.27319C16.8267 7.27313 16.6737 7.31918 16.5436 7.40551C16.4135 7.49184 16.3121 7.61458 16.2522 7.7582C16.1923 7.90181 16.1766 8.05986 16.2071 8.21235C16.2375 8.36484 16.3128 8.50491 16.4234 8.61487C16.534 8.72483 16.675 8.79972 16.8284 8.83008C16.9818 8.86043 17.1409 8.84489 17.2854 8.78541C17.4299 8.72593 17.5535 8.62517 17.6404 8.49591C17.7273 8.36664 17.7737 8.21468 17.7737 8.05921C17.7737 7.95601 17.7533 7.85379 17.7136 7.75843C17.6739 7.66307 17.6156 7.57642 17.5422 7.50343C17.4688 7.43044 17.3817 7.37253 17.2857 7.33303C17.1898 7.29352 17.087 7.27319 16.9831 7.27319Z" fill="#595959"/>
<path d="M16.983 10.4935C16.8267 10.4935 16.6737 10.5396 16.5437 10.6259C16.4137 10.7123 16.3124 10.835 16.2526 10.9785C16.1927 11.1221 16.1771 11.2801 16.2076 11.4325C16.2381 11.5849 16.3134 11.7249 16.424 11.8348C16.5346 11.9446 16.6754 12.0195 16.8288 12.0498C16.9821 12.0801 17.1411 12.0645 17.2855 12.0051C17.43 11.9456 17.5535 11.8449 17.6404 11.7157C17.7272 11.5865 17.7736 11.4346 17.7736 11.2792C17.7736 11.0708 17.6903 10.871 17.5421 10.7236C17.3938 10.5763 17.1927 10.4935 16.983 10.4935Z" fill="#595959"/>
<path d="M16.983 13.7145C16.8267 13.7145 16.6737 13.7606 16.5437 13.8469C16.4137 13.9332 16.3124 14.0559 16.2526 14.1995C16.1927 14.3431 16.1771 14.501 16.2076 14.6534C16.2381 14.8058 16.3134 14.9458 16.424 15.0557C16.5346 15.1656 16.6754 15.2404 16.8288 15.2708C16.9821 15.3011 17.1411 15.2855 17.2855 15.226C17.43 15.1666 17.5535 15.0659 17.6404 14.9367C17.7272 14.8075 17.7736 14.6556 17.7736 14.5002C17.7736 14.2918 17.6903 14.0919 17.5421 13.9446C17.3938 13.7973 17.1927 13.7145 16.983 13.7145Z" fill="#595959"/>
</svg>
