<svg width="26" height="24" viewBox="0 0 26 24" fill="none" xmlns="http://www.w3.org/2000/svg">
<path d="M12.7606 2.25382C12.8198 2.25364 12.8771 2.27471 12.9219 2.31315L23.8203 11.6047C23.8474 11.6278 23.8692 11.6565 23.8841 11.6888C23.899 11.7211 23.9068 11.7561 23.9068 11.7917V21.7724C23.9067 21.8377 23.8805 21.9004 23.834 21.9467C23.7875 21.9929 23.7244 22.0189 23.6586 22.019H17.5686C17.5028 22.0189 17.4397 21.9929 17.3932 21.9467C17.3467 21.9004 17.3205 21.8377 17.3204 21.7724V16.7729C17.3194 15.8573 16.9529 14.9795 16.3014 14.332C15.65 13.6846 14.7667 13.3204 13.8454 13.3194H11.6769C10.7556 13.3204 9.87232 13.6846 9.22085 14.332C8.56938 14.9795 8.20292 15.8573 8.2019 16.7729V21.7724C8.20181 21.8377 8.1757 21.9004 8.12918 21.9467C8.08266 21.9929 8.0196 22.0189 7.95381 22.019H1.86271C1.79693 22.0189 1.73386 21.9929 1.68735 21.9467C1.64083 21.9004 1.61472 21.8377 1.61463 21.7724V11.7917C1.61465 11.7561 1.62239 11.7211 1.63732 11.6888C1.65224 11.6565 1.67394 11.6278 1.70105 11.6047L12.5992 2.31315C12.644 2.27461 12.7013 2.25353 12.7606 2.25382ZM12.7606 0.650392C12.3159 0.649947 11.8858 0.808123 11.5485 1.09615L0.650116 10.3877C0.446374 10.5613 0.282776 10.7767 0.170655 11.019C0.0585337 11.2614 0.000482377 11.5249 0.000488282 11.7917V21.7724C0.000488282 22.263 0.196617 22.7336 0.545731 23.0805C0.894845 23.4275 1.36836 23.6224 1.86208 23.6224H7.95248C8.4462 23.6224 8.91971 23.4275 9.26883 23.0805C9.61794 22.7336 9.81407 22.263 9.81407 21.7724V16.7729C9.81407 16.2822 10.0102 15.8117 10.3593 15.4647C10.7084 15.1178 11.1819 14.9228 11.6757 14.9228H13.8441C14.3378 14.9228 14.8113 15.1178 15.1605 15.4647C15.5096 15.8117 15.7057 16.2822 15.7057 16.7729V21.7724C15.7057 22.263 15.9018 22.7336 16.2509 23.0805C16.6001 23.4275 17.0736 23.6224 17.5673 23.6224H23.6583C24.152 23.6224 24.6256 23.4275 24.9747 23.0805C25.3238 22.7336 25.5199 22.263 25.5199 21.7724V11.7917C25.5199 11.5249 25.4619 11.2614 25.3497 11.019C25.2376 10.7767 25.074 10.5613 24.8703 10.3877L13.9719 1.09615C13.6345 0.808273 13.2045 0.650117 12.7598 0.650392H12.7606Z" fill="#595959"/>
<path d="M22.8283 2.50266V4.92481L20.5565 2.97183V2.50266H22.8283ZM23.0864 0.899231H20.2984C19.9389 0.899231 19.5943 1.04114 19.3401 1.29373C19.0859 1.54632 18.9431 1.8889 18.9431 2.24612V3.70492L23.302 7.45213C23.4254 7.56033 23.5843 7.62019 23.7489 7.6205C23.8398 7.62097 23.9299 7.60353 24.014 7.56924C24.0981 7.53494 24.1746 7.48445 24.239 7.42066C24.3034 7.35687 24.3545 7.28105 24.3892 7.19756C24.424 7.11408 24.4419 7.02459 24.4417 6.93423V2.24612C24.4417 1.8889 24.2989 1.54632 24.0447 1.29373C23.7906 1.04114 23.4459 0.899231 23.0864 0.899231Z" fill="#595959"/>
</svg>
