<svg width="23" height="23" viewBox="0 0 23 23" fill="none" xmlns="http://www.w3.org/2000/svg">
<path d="M0.00130807 5.06605C0.00130802 3.92052 0.00130797 2.77498 0.00130792 1.62945C0.00241691 0.67053 0.640552 0.0114822 1.60375 0.00804608C3.90351 -0.000379733 6.20328 -0.000379834 8.50305 0.00804578C9.45027 0.0118147 10.1023 0.667326 10.1052 1.61051C10.1126 3.92699 10.1126 6.24344 10.1052 8.55986C10.1018 9.50149 9.43641 10.15 8.4964 10.1511C6.19663 10.1538 3.89686 10.1538 1.59709 10.1511C0.655081 10.1499 0.0033035 9.49384 0.00163991 8.55298C-0.000430342 7.39075 -0.000540268 6.22843 0.00130807 5.06605ZM8.54852 8.60043L8.54852 1.56027L1.55406 1.56027L1.55406 8.60043L8.54852 8.60043Z" fill="#595959"/>
<path d="M0.00122288 17.9097C0.00122283 16.7641 0.00122278 15.6188 0.00122273 14.4737C0.00233172 13.5093 0.638139 12.8605 1.60333 12.8583C3.90273 12.8532 6.20238 12.8532 8.5023 12.8583C9.44841 12.8606 10.102 13.5074 10.1051 14.4535C10.1125 16.7697 10.1125 19.086 10.1051 21.4023C10.1019 22.3349 9.45074 22.9891 8.52248 22.9922C6.20571 22.9999 3.88894 22.9999 1.57217 22.9922C0.640579 22.9887 0.00299571 22.3279 0.00144302 21.3971C-0.000405419 20.2346 -0.000477592 19.0721 0.00122288 17.9097ZM1.55486 14.4093L1.55487 21.4336L8.55287 21.4336L8.55287 14.4093L1.55486 14.4093Z" fill="#595959"/>
<path d="M12.8824 17.9066C12.8824 16.7607 12.8824 15.6147 12.8824 14.4687C12.8838 13.5175 13.5206 12.8634 14.4665 12.8613C16.7761 12.8559 19.0856 12.8559 21.3951 12.8613C22.3133 12.8634 22.9769 13.4999 22.9824 14.4194C22.9961 16.7541 22.9964 19.0888 22.9832 21.4236C22.9785 22.3455 22.3239 22.9896 21.4061 22.9928C19.0881 23.0008 16.77 23.0008 14.4519 22.9928C13.5203 22.9895 12.884 22.3299 12.8824 21.3964C12.8807 20.233 12.8807 19.0698 12.8824 17.9066ZM14.4339 21.4391L21.4287 21.4391L21.4287 14.4143L14.4339 14.4143L14.4339 21.4391Z" fill="#595959"/>
<path d="M14.4393 1.54493L14.4393 8.55791L21.4562 8.55791L21.4562 8.29295C21.4562 6.86465 21.4566 5.43641 21.4573 4.00819C21.4584 3.45224 21.9231 3.08197 22.4301 3.22309C22.589 3.2651 22.7299 3.35793 22.8311 3.48744C22.9324 3.61694 22.9884 3.776 22.9908 3.94034C22.9978 5.51452 23.01 7.08782 22.9849 8.66111C22.9763 9.04788 22.8163 9.41586 22.5394 9.68606C22.2624 9.95626 21.8905 10.1072 21.5035 10.1064C19.1256 10.1208 16.7477 10.1208 14.3696 10.1064C14.1718 10.1043 13.9763 10.063 13.7946 9.98499C13.6128 9.90696 13.4483 9.79368 13.3106 9.65172C13.1728 9.50975 13.0646 9.34193 12.9922 9.15792C12.9197 8.9739 12.8845 8.77736 12.8885 8.57965C12.8829 6.23626 12.8829 3.89287 12.8885 1.54948C12.8844 1.34941 12.9204 1.15054 12.9943 0.964552C13.0681 0.778563 13.1784 0.609191 13.3187 0.466395C13.4589 0.3236 13.6263 0.210263 13.811 0.13301C13.9957 0.0557565 14.1939 0.0161418 14.3941 0.0165223C15.9676 -0.0100833 17.5419 0.000889575 19.1157 0.011975C19.2174 0.0118873 19.3181 0.0320413 19.4119 0.0712745C19.5058 0.110507 19.5908 0.168035 19.6622 0.240484C19.7335 0.312933 19.7897 0.398852 19.8275 0.493244C19.8653 0.587635 19.8839 0.688606 19.8822 0.790254C19.8805 0.891902 19.8586 0.992201 19.8177 1.08529C19.7768 1.17838 19.7178 1.2624 19.6441 1.33245C19.5704 1.40249 19.4834 1.45716 19.3884 1.49326C19.2933 1.52937 19.192 1.54617 19.0903 1.54271C17.6447 1.54859 16.199 1.54514 14.7533 1.54537L14.4393 1.54493Z" fill="#595959"/>
</svg>
