<svg width="23" height="24" viewBox="0 0 23 24" fill="none" xmlns="http://www.w3.org/2000/svg">
<path d="M8.98627 2.57443C10.5643 2.57353 12.0974 3.09619 13.3425 4.05952C15.1231 5.4234 17.6753 9.24052 14.5897 13.9248C14.3152 14.3415 13.9609 14.7005 13.5468 14.9811L13.318 15.1363C12.0716 16.0459 10.5724 16.55 9.02629 16.5794C8.32668 16.575 7.63124 16.4714 6.96105 16.2719C5.34433 15.8185 3.95618 14.7815 3.06848 13.3642C2.37923 12.3083 1.98981 11.0869 1.94136 9.82911C1.89292 8.57135 2.1873 7.32394 2.7933 6.21869C3.3993 5.11344 4.29442 4.1914 5.38417 3.55C6.47392 2.90859 7.71777 2.57165 8.9843 2.57477L8.98627 2.57443ZM8.9843 0.650652C7.36923 0.647519 5.78332 1.07794 4.39405 1.89646C3.00478 2.71498 1.86373 3.89121 1.09148 5.30089C0.319221 6.71057 -0.0555752 8.30136 0.00666161 9.90523C0.0688984 11.5091 0.565842 13.0665 1.44504 14.4129C2.58663 16.2141 4.35676 17.5334 6.41636 18.1181C7.2632 18.3698 8.14207 18.4994 9.02598 18.5029C10.961 18.4725 12.8398 17.8521 14.4084 16.7257C15.0037 17.3334 15.5513 17.9029 16.1108 18.4612C17.6255 19.9736 19.1179 21.5103 20.6859 22.9665C21.0013 23.2434 21.4007 23.4076 21.8208 23.4331C22.1017 23.379 22.3583 23.2384 22.5542 23.0311C22.7501 22.8239 22.8753 22.5606 22.9121 22.2787C22.9444 21.8727 22.6159 21.3467 22.2942 21.0203C20.3003 18.9945 18.2639 17.0101 16.209 14.9798C19.5933 9.84182 17.5174 4.83015 14.5239 2.53724C12.9383 1.31664 10.9899 0.653534 8.9843 0.651924V0.650652Z" fill="#595959"/>
</svg>
