<svg width="23" height="23" viewBox="0 0 23 23" fill="none" xmlns="http://www.w3.org/2000/svg">
<path d="M0 11.7674C0.0350834 6.42487 3.16369 2.06317 7.87734 0.525415C13.1675 -1.20038 19.0709 1.45326 21.3672 6.60883C22.9543 10.172 22.786 13.6895 21.0145 17.1466C20.7278 17.706 20.1805 17.9188 19.6687 17.6815C19.1765 17.4533 18.9957 16.933 19.1913 16.3547C19.5788 15.2084 20.125 14.0854 20.3119 12.9065C21.1573 7.58802 17.4671 2.89961 12.5952 2.15875C7.49991 1.38387 2.93256 5.00105 2.15234 9.93446C1.39527 14.7214 4.22216 19.3048 8.77463 20.5778C11.6475 21.3813 14.2937 20.8392 16.6855 19.0697C17.2418 18.6582 17.7746 18.6764 18.1615 19.1512C18.5595 19.6392 18.4748 20.1876 17.9325 20.6409C14.1826 23.7742 8.3395 23.7913 4.43152 20.6626C1.50022 18.3143 0.0855617 15.2266 0 11.7674Z" fill="#595959"/>
<path d="M13.9436 14.3465C11.433 14.3465 8.92237 14.3458 6.41186 14.3446C6.18579 14.351 5.95965 14.3352 5.7367 14.2974C5.24301 14.1978 4.96611 13.8255 4.9792 13.3232C4.98404 13.0961 5.07 12.8781 5.22164 12.7084C5.37328 12.5388 5.58066 12.4285 5.80655 12.3975C5.85844 12.3906 5.91078 12.3877 5.96311 12.3887C9.43397 12.3868 12.9048 12.3865 16.3757 12.3878C17.014 12.389 17.4506 12.8757 17.3529 13.4644C17.3159 13.6675 17.2214 13.8557 17.0806 14.007C16.1609 14.958 15.2307 15.8987 14.2898 16.8291C13.887 17.2272 13.2926 17.236 12.9237 16.8893C12.527 16.5171 12.5177 15.93 12.9367 15.4966C13.2832 15.1378 13.665 14.8129 14.0312 14.473L13.9436 14.3465Z" fill="#595959"/>
<path d="M8.39402 9.2435C8.5775 9.2435 8.76056 9.2435 8.94446 9.2435C11.3676 9.23932 13.7909 9.23108 16.2141 9.23306C16.9762 9.23359 17.3956 9.62249 17.3635 10.2627C17.353 10.4804 17.2674 10.6879 17.1212 10.85C16.9749 11.0122 16.777 11.1191 16.5608 11.1527C16.4745 11.1654 16.3874 11.1713 16.3001 11.1705C12.8659 11.1719 9.43157 11.1731 5.99724 11.1743C5.54869 11.1749 5.20959 10.9961 5.04423 10.5828C4.88054 10.1743 4.98778 9.80655 5.30437 9.49111C6.20439 8.59467 7.09384 7.68769 7.99585 6.79323C8.45895 6.3341 9.03264 6.3028 9.4306 6.69159C9.83516 7.08686 9.81955 7.66004 9.34944 8.11405C9.00562 8.44608 8.61771 8.73303 8.24981 9.04013L8.39402 9.2435Z" fill="#595959"/>
</svg>
