<svg width="331" height="189" viewBox="0 0 331 189" fill="none" xmlns="http://www.w3.org/2000/svg">
<path d="M149.817 186.785C149.615 184.356 150.068 181.917 151.129 179.723C152.19 177.528 153.821 175.659 155.851 174.309C157.881 172.96 160.236 172.18 162.67 172.051C165.104 171.921 167.528 172.447 169.69 173.574C170.592 170.723 171.931 168.03 173.66 165.59C175.51 163.25 178.307 161.455 181.292 161.565V186.79L149.817 186.785Z" fill="#EBEBEB"/>
<g opacity="0.4">
<path opacity="0.4" d="M66.8969 89.069L50.7969 121.529L55.6039 121.711L41.9649 147.511H49.1289L37.9609 170.425H100.409L86.6599 147.508L93.2509 147.222L80.0739 121.441L84.9419 121.149L66.8969 89.069Z" fill="#AFC0FF"/>
</g>
<path d="M69.613 126.721C69.69 126.721 69.552 140.487 69.305 157.421C69.058 174.355 68.793 188.121 68.71 188.121C68.627 188.121 68.771 174.355 69.018 157.421C69.265 140.487 69.534 126.721 69.613 126.721Z" fill="#C1C1C1"/>
<path d="M77.2709 134.293C76.9615 134.821 76.6097 135.322 76.2189 135.793C75.5419 136.693 74.5669 137.913 73.4659 139.245L70.6579 142.645C70.288 143.131 69.8851 143.591 69.4519 144.022C69.7569 143.493 70.1069 142.991 70.4979 142.522C71.1809 141.622 72.1499 140.402 73.2509 139.07L76.0589 135.67C76.4274 135.183 76.8323 134.725 77.2699 134.299L77.2709 134.293Z" fill="#C1C1C1"/>
<path d="M69.4729 144.017C68.2452 143.237 67.0682 142.38 65.949 141.451C64.7713 140.592 63.6512 139.657 62.5959 138.651C63.8262 139.43 65.0053 140.287 66.1259 141.217C67.3041 142.073 68.4227 143.009 69.474 144.017H69.4729Z" fill="#C1C1C1"/>
<path d="M69.039 159.935C68.6166 159.662 68.222 159.349 67.861 158.999C67.161 158.399 66.209 157.573 65.108 156.681C64.007 155.789 63.008 155.002 62.278 154.434C61.8656 154.147 61.4788 153.824 61.1219 153.47C61.5715 153.694 61.9976 153.962 62.394 154.27C63.159 154.821 64.194 155.564 65.294 156.47C66.394 157.376 67.348 158.221 68.02 158.86C68.3934 159.185 68.7346 159.545 69.039 159.935Z" fill="#C1C1C1"/>
<path d="M77.937 150.096C77.8577 150.254 77.7596 150.402 77.645 150.536C77.445 150.806 77.145 151.186 76.758 151.636C75.982 152.556 74.858 153.778 73.586 155.105C72.314 156.432 71.174 157.621 70.365 158.505C69.9485 159 69.5055 159.473 69.038 159.92C69.1097 159.761 69.2062 159.614 69.324 159.485C69.524 159.21 69.824 158.83 70.211 158.385C70.987 157.46 72.111 156.238 73.383 154.916C74.655 153.594 75.795 152.394 76.604 151.508C77.0213 151.012 77.4664 150.539 77.937 150.093V150.096Z" fill="#C1C1C1"/>
<g opacity="0.3">
<path opacity="0.3" d="M197.888 126.004H263.138L275.329 108.692L288.109 126.492L303.125 126.25L286.942 104.45L214.187 104.75L197.888 126.004Z" fill="#AFC0FF"/>
</g>
<path d="M230.518 126.254V186.944H295.678V126.254H288.208L275.329 108.694L263.099 125.994L230.518 126.254Z" fill="#F5F5F5"/>
<g opacity="0.3">
<path opacity="0.3" d="M254.967 160.63H239.725V186.939H254.967V160.63Z" fill="#AFC0FF"/>
</g>
<g opacity="0.3">
<path opacity="0.3" d="M288.109 159.886H264.101V174.759H288.109V159.886Z" fill="#AFC0FF"/>
</g>
<path d="M271.31 159.886H270.759V174.896H271.31V159.886Z" fill="#EBEBEB"/>
<path d="M281.293 159.886H280.742V174.896H281.293V159.886Z" fill="#EBEBEB"/>
<path d="M281.017 167.573H271.034V168.124H281.017V167.573Z" fill="#EBEBEB"/>
<g opacity="0.3">
<path opacity="0.3" d="M288.109 130.124H264.101V144.997H288.109V130.124Z" fill="#AFC0FF"/>
</g>
<path d="M271.31 130.124H270.759V145.134H271.31V130.124Z" fill="#EBEBEB"/>
<path d="M281.293 130.124H280.742V145.134H281.293V130.124Z" fill="#EBEBEB"/>
<path d="M281.017 137.806H271.034V138.357H281.017V137.806Z" fill="#EBEBEB"/>
<g opacity="0.3">
<path opacity="0.3" d="M253.375 130.257H238.233V144.596H253.375V130.257Z" fill="#AFC0FF"/>
</g>
<g opacity="0.3">
<path opacity="0.3" d="M230.524 126.253H204.077V186.933H230.524V126.253Z" fill="#AFC0FF"/>
</g>
<path d="M246.079 130.257H245.528V144.596H246.079V130.257Z" fill="#EBEBEB"/>
<path d="M253.375 137.503H238.233V138.054H253.375V137.503Z" fill="#EBEBEB"/>
<path d="M275.296 123.489C277.069 123.489 278.506 122.052 278.506 120.279C278.506 118.506 277.069 117.069 275.296 117.069C273.523 117.069 272.086 118.506 272.086 120.279C272.086 122.052 273.523 123.489 275.296 123.489Z" fill="#E0E0E0"/>
<path d="M252.395 116.342L256.448 111.342V99.322H247.962V116.436L252.395 116.342Z" fill="#F5F5F5"/>
<path d="M252.395 116.342V99.322H256.448V111.342L252.395 116.342Z" fill="#EBEBEB"/>
<path d="M257.015 97.554H247.015V99.322H257.015V97.554Z" fill="#EBEBEB"/>
<path d="M230.518 152.8H181.313V186.939H230.518V152.8Z" fill="#F5F5F5"/>
<g opacity="0.3">
<path opacity="0.3" d="M212.121 152.8H181.313V186.939H212.121V152.8Z" fill="#AFC0FF"/>
</g>
<path d="M207.535 163.807H187.387V186.879H207.535V163.807Z" fill="#F5F5F5"/>
<path d="M227.809 163.713H214.831V167.017H227.809V163.713Z" fill="#EBEBEB"/>
<path d="M197.888 126.006V127.763H263.1V125.989L197.888 126.006Z" fill="#EBEBEB"/>
<path d="M263.099 127.762L275.299 110.643L275.332 108.694L263.141 126.006L263.099 127.762Z" fill="#EBEBEB"/>
<path d="M302.811 126.253H288.208V127.387H302.811V126.253Z" fill="#EBEBEB"/>
<path opacity="0.3" d="M249.769 156.599H244.378V158.647H249.769V156.599Z" fill="#AFC0FF"/>
<path d="M330.57 186.939C330.57 187.016 256.565 187.082 165.291 187.082C74.017 187.082 0.000976562 187.016 0.000976562 186.939C0.000976562 186.862 73.989 186.785 165.284 186.785C256.579 186.785 330.57 186.857 330.57 186.939Z" fill="#35488B"/>
<path d="M202.689 27.222C190.489 10.444 172.762 2.62201 154.233 2.62201C154.233 2.62201 108.921 2.62201 95.5019 43.187C90.5459 58.137 91.6479 74.369 97.6489 88.928C99.9024 94.4627 102.742 99.7404 106.118 104.671C117.841 121.571 154.271 167.724 154.271 167.724H162.189C172.354 153.606 197.942 106.708 205.607 91.67C215.216 72.803 216.692 46.483 202.689 27.222ZM161.815 102.257C154.159 102.257 146.674 99.9867 140.309 95.7331C133.943 91.4795 128.981 85.4337 126.051 78.3602C123.122 71.2868 122.355 63.5034 123.849 55.9943C125.343 48.4853 129.03 41.5878 134.444 36.1742C139.857 30.7606 146.755 27.074 154.264 25.5806C161.773 24.0872 169.557 24.854 176.63 27.7842C183.703 30.7144 189.749 35.6763 194.002 42.0423C198.255 48.4084 200.525 55.8928 200.525 63.549C200.524 73.8152 196.446 83.6607 189.186 90.9198C181.927 98.1789 172.081 102.257 161.815 102.257Z" fill="#E8505B"/>
<path opacity="0.4" d="M202.689 27.222C190.489 10.444 172.762 2.62201 154.233 2.62201C154.233 2.62201 108.921 2.62201 95.5019 43.187C90.5459 58.137 91.6479 74.369 97.6489 88.928C99.9024 94.4627 102.742 99.7404 106.118 104.671C117.841 121.571 154.271 167.724 154.271 167.724H162.189C172.354 153.606 197.942 106.708 205.607 91.67C215.216 72.803 216.692 46.483 202.689 27.222ZM161.815 102.257C154.159 102.257 146.674 99.9867 140.309 95.7331C133.943 91.4795 128.981 85.4337 126.051 78.3602C123.122 71.2868 122.355 63.5034 123.849 55.9943C125.343 48.4853 129.03 41.5878 134.444 36.1742C139.857 30.7606 146.755 27.074 154.264 25.5806C161.773 24.0872 169.557 24.854 176.63 27.7842C183.703 30.7144 189.749 35.6763 194.002 42.0423C198.255 48.4084 200.525 55.8928 200.525 63.549C200.524 73.8152 196.446 83.6607 189.186 90.9198C181.927 98.1789 172.081 102.257 161.815 102.257Z" fill="black"/>
<path d="M210.657 27.535C198.457 10.763 180.73 2.944 162.201 2.944C162.201 2.944 116.889 2.94401 103.47 43.509C98.514 58.459 99.616 74.691 105.623 89.25C107.873 94.7851 110.71 100.063 114.086 104.993C125.809 121.893 162.223 168.063 162.223 168.063C162.223 168.063 204.297 110.186 213.559 92.015C223.18 73.114 224.665 46.802 210.657 27.535ZM161.865 102.576C152.988 102.51 144.408 99.3715 137.583 93.6952C130.758 88.0189 126.109 80.1545 124.426 71.4385C122.743 62.7224 124.13 53.6926 128.352 45.8834C132.573 38.0742 139.368 31.9675 147.582 28.6011C155.795 25.2347 164.922 24.8163 173.409 27.417C181.897 30.0176 189.222 35.4769 194.14 42.867C199.058 50.2572 201.265 59.1222 200.387 67.9557C199.509 76.7891 195.599 85.046 189.322 91.323C185.71 94.9124 181.426 97.7539 176.715 99.6849C172.003 101.616 166.957 102.598 161.865 102.576Z" fill="#E8505B"/>
<path d="M161.815 24.843C153.816 24.8431 146.013 27.3214 139.479 31.9371C132.946 36.5529 128.003 43.0793 125.33 50.619C128.317 44.0181 133.382 38.5768 139.753 35.1268C146.124 31.6767 153.45 30.4078 160.61 31.5141C167.77 32.6203 174.371 36.0407 179.404 41.2526C184.436 46.4644 187.624 53.1809 188.479 60.3754C189.334 67.5698 187.81 74.8464 184.14 81.0928C180.469 87.3393 174.854 92.2119 168.153 94.9658C161.451 97.7198 154.033 98.2036 147.03 96.3433C140.028 94.4829 133.828 90.3808 129.377 84.664C133.036 90.2822 138.092 94.8534 144.05 97.9295C150.007 101.006 156.662 102.481 163.361 102.212C170.06 101.942 176.575 99.9368 182.266 96.392C187.957 92.8471 192.629 87.8846 195.826 81.9906C199.022 76.0965 200.631 69.4733 200.497 62.7698C200.364 56.0664 198.49 49.5127 195.061 43.7511C191.632 37.9895 186.765 33.2175 180.937 29.9029C175.109 26.5883 168.52 24.8447 161.815 24.843Z" fill="#E8505B"/>
<path opacity="0.4" d="M161.815 24.843C153.816 24.8431 146.013 27.3214 139.479 31.9371C132.946 36.5529 128.003 43.0793 125.33 50.619C128.317 44.0181 133.382 38.5768 139.753 35.1268C146.124 31.6767 153.45 30.4078 160.61 31.5141C167.77 32.6203 174.371 36.0407 179.404 41.2526C184.436 46.4644 187.624 53.1809 188.479 60.3754C189.334 67.5698 187.81 74.8464 184.14 81.0928C180.469 87.3393 174.854 92.2119 168.153 94.9658C161.451 97.7198 154.033 98.2036 147.03 96.3433C140.028 94.4829 133.828 90.3808 129.377 84.664C133.036 90.2822 138.092 94.8534 144.05 97.9295C150.007 101.006 156.662 102.481 163.361 102.212C170.06 101.942 176.575 99.9368 182.266 96.392C187.957 92.8471 192.629 87.8846 195.826 81.9906C199.022 76.0965 200.631 69.4733 200.497 62.7698C200.364 56.0664 198.49 49.5127 195.061 43.7511C191.632 37.9895 186.765 33.2175 180.937 29.9029C175.109 26.5883 168.52 24.8447 161.815 24.843Z" fill="black"/>
<path d="M238.994 81.304C237.437 80.234 235.547 79.7592 233.669 79.966C230.497 80.329 225.9 80.797 225.9 80.797V80.946L203.694 82.304L196.894 68.514L186.594 75.304C186.594 75.304 187.949 77.473 193.725 88.139C194.852 90.2208 196.592 91.9064 198.708 92.968C200.824 94.0296 203.215 94.416 205.558 94.075L231.708 90.221V90.171C234.408 90.022 237.335 89.771 237.765 89.378C238.58 88.64 239.318 85.942 239.318 85.942C239.318 85.942 243.976 88.695 244.874 88.772C245.772 88.849 245.937 88.084 246.493 87.291C246.889 86.804 242.087 83.404 238.994 81.304Z" fill="#EAAB75"/>
<path d="M198.287 67.633C198.287 67.633 193.97 59.324 190.027 51.477C185.17 41.846 174.461 39.914 174.461 39.914L158.944 37.877C158.944 37.877 145.96 32.013 133.901 46.577L123.987 57.65L126.096 59.55L135.925 68.36L137.869 70.111L142.318 65.53L140.253 77.13L136.602 93.308L144.493 92.355L149.829 59.73L179.916 62.13L177.516 82.718C178.001 82.646 181.64 81.931 182.824 76.986C183.204 75.4086 183.204 73.7634 182.824 72.186L184.564 76.641L198.287 67.633Z" fill="#EC9037"/>
<path d="M149.789 59.748L144.453 92.373L136.562 93.326C141.833 97.8734 148.233 100.913 155.088 102.125C161.943 103.336 168.998 102.674 175.508 100.209L177.508 82.715L179.87 62.143L149.789 59.748Z" fill="#354E97"/>
<path d="M151.574 36.257L150.924 62.757L155.924 63.55L156.596 36.69C154.987 36.1143 153.257 35.9651 151.574 36.257Z" fill="#354E97"/>
<path d="M172.806 62.896L176.941 40.133C177.178 39.88 180.57 41.097 181.594 42.253L177.883 63.37L172.806 62.896Z" fill="#354E97"/>
<path d="M156.122 59.655C156.175 59.7997 156.201 59.9529 156.199 60.107C156.237 60.5245 156.237 60.9445 156.199 61.362C156.16 62.0027 155.945 62.6202 155.577 63.146C155.35 63.46 155.05 63.7135 154.702 63.884C154.317 64.0577 153.889 64.1097 153.474 64.033C153.085 63.9509 152.717 63.7898 152.393 63.5596C152.07 63.3294 151.796 63.0352 151.591 62.695C151.272 62.145 151.084 61.5292 151.04 60.895C151.003 60.4775 151.003 60.0576 151.04 59.64C151.037 59.4837 151.066 59.3284 151.123 59.183C151.173 59.183 151.123 59.844 151.239 60.873C151.316 61.4576 151.513 62.0201 151.817 62.525C152.008 62.8295 152.258 63.0924 152.553 63.2979C152.847 63.5034 153.18 63.6473 153.532 63.721C153.88 63.7826 154.238 63.7438 154.565 63.6092C154.892 63.4746 155.173 63.2498 155.377 62.961C155.728 62.4749 155.947 61.9054 156.01 61.309C156.132 60.315 156.067 59.655 156.122 59.655Z" fill="#233862"/>
<path d="M153.17 61.994C152.959 61.9101 152.778 61.7655 152.649 61.5786C152.521 61.3917 152.451 61.1709 152.447 60.9441C152.444 60.7172 152.509 60.4946 152.632 60.3042C152.756 60.1139 152.933 59.9645 153.141 59.8748C153.349 59.7852 153.58 59.7593 153.803 59.8006C154.026 59.8418 154.232 59.9483 154.394 60.1065C154.557 60.2647 154.669 60.4676 154.716 60.6895C154.763 60.9114 154.744 61.1423 154.66 61.353C154.547 61.6356 154.327 61.8619 154.048 61.9821C153.768 62.1023 153.452 62.1066 153.17 61.994Z" fill="#233862"/>
<path d="M176.694 62.142C176.695 62.3699 176.629 62.593 176.503 62.7831C176.377 62.9732 176.198 63.1216 175.988 63.2097C175.777 63.2977 175.546 63.3214 175.322 63.2776C175.098 63.2339 174.893 63.1247 174.731 62.964C174.57 62.8033 174.459 62.5982 174.415 62.3748C174.37 62.1514 174.392 61.9196 174.479 61.7089C174.566 61.4983 174.713 61.3182 174.903 61.1914C175.092 61.0647 175.315 60.997 175.543 60.997C175.847 60.997 176.139 61.1175 176.355 61.332C176.57 61.5466 176.692 61.8378 176.694 62.142Z" fill="#233862"/>
<path d="M178.23 61.344C178.221 61.8015 178.133 62.2541 177.971 62.682C177.816 63.1686 177.555 63.6145 177.206 63.987C176.983 64.218 176.711 64.3956 176.409 64.5062C176.108 64.6169 175.785 64.6579 175.466 64.626C174.828 64.5571 174.239 64.253 173.814 63.773C173.483 63.381 173.262 62.9077 173.175 62.402C173.111 62.0698 173.1 61.7297 173.142 61.394C173.149 61.2688 173.183 61.1467 173.242 61.036C173.249 61.4812 173.294 61.9251 173.374 62.363C173.481 62.8207 173.701 63.2444 174.013 63.596C174.401 64.0139 174.927 64.2778 175.494 64.339C175.774 64.3683 176.057 64.3339 176.322 64.2385C176.587 64.1431 176.828 63.9891 177.025 63.788C177.358 63.4529 177.617 63.0515 177.785 62.61C177.912 62.1807 178.06 61.7581 178.23 61.344Z" fill="#233862"/>
<path d="M153.076 72.252C153.037 72.252 153.021 72.032 153.032 71.701C153.029 71.4986 153.038 71.2962 153.06 71.095C153.055 70.975 153.065 70.8548 153.088 70.737V70.357L153.248 70.214C153.895 70.236 154.535 70.3529 155.148 70.561C154.504 70.6331 153.853 70.6109 153.215 70.495C153.182 70.528 153.515 70.225 153.375 70.357V70.731C153.368 70.8528 153.353 70.9741 153.331 71.094C153.319 71.2998 153.29 71.5042 153.243 71.705C153.17 72.021 153.115 72.252 153.076 72.252Z" fill="#233862"/>
<path d="M152.272 79.819C152.2 79.1824 152.22 78.5387 152.333 77.908C152.353 77.267 152.468 76.6324 152.674 76.025C152.753 76.6611 152.735 77.3056 152.619 77.936C152.594 78.577 152.477 79.2111 152.272 79.819Z" fill="#233862"/>
<path d="M153.39 86.387C152.761 86.2321 152.157 85.9855 151.6 85.655C151.6 85.688 151.451 85.385 151.517 85.512V85.138L151.567 84.78C151.6 84.554 151.633 84.345 151.661 84.174C151.727 83.833 151.782 83.623 151.821 83.623C151.86 83.623 151.876 83.849 151.865 84.174C151.865 84.35 151.854 84.5537 151.832 84.785C151.838 84.9069 151.826 85.0291 151.799 85.148V85.522C151.871 85.649 151.705 85.346 151.722 85.379C152.324 85.6314 152.886 85.9711 153.39 86.387Z" fill="#233862"/>
<path d="M158.478 88.914C157.552 88.6742 156.683 88.2512 155.923 87.67C156.397 87.748 156.85 87.9204 157.256 88.177C157.708 88.3397 158.124 88.5905 158.478 88.915V88.914Z" fill="#233862"/>
<path d="M164.535 90.308C164.002 90.6779 163.418 90.9673 162.801 91.167H162.619L162.531 91.123L162.36 91.035L162.041 90.87L161.49 90.57C161.19 90.394 161.016 90.27 161.033 90.229C161.05 90.188 161.259 90.229 161.584 90.389C161.744 90.455 161.936 90.538 162.135 90.637L162.46 90.791L162.636 90.874L162.724 90.913H162.674C163.261 90.6218 163.888 90.4196 164.535 90.313V90.308Z" fill="#233862"/>
<path d="M168.649 88.64C168.677 88.717 168.242 88.959 167.674 89.191C167.337 89.3765 166.959 89.4749 166.574 89.477C166.524 89.405 166.981 89.158 167.549 88.926C167.887 88.7419 168.264 88.6437 168.649 88.64Z" fill="#233862"/>
<path d="M172.691 85.165C172.764 85.8087 172.745 86.4595 172.636 87.098L172.542 87.219H172.498L172.404 87.258L172.228 87.33L171.892 87.457C171.672 87.534 171.479 87.606 171.308 87.657C170.978 87.767 170.757 87.817 170.757 87.778C170.757 87.739 170.933 87.629 171.242 87.47L171.793 87.211L172.129 87.068L172.305 86.996L172.393 86.957H172.443L172.355 87.078C172.371 86.4278 172.484 85.7836 172.691 85.167V85.165Z" fill="#233862"/>
<path d="M173.423 78.029C173.496 79.2305 173.371 80.4358 173.054 81.597C172.977 80.9983 172.991 80.3912 173.098 79.797C173.113 79.1927 173.223 78.5945 173.423 78.024V78.029Z" fill="#233862"/>
<path d="M172.074 72.341C172.718 72.2689 173.369 72.2911 174.007 72.407L174.134 72.561V72.935C174.127 73.0552 174.113 73.1748 174.09 73.293C174.057 73.524 174.029 73.728 173.996 73.904C173.935 74.245 173.875 74.455 173.836 74.455C173.797 74.455 173.786 74.229 173.792 73.904C173.788 73.6978 173.799 73.4916 173.825 73.287L173.852 72.929V72.555L173.979 72.709C173.329 72.6804 172.687 72.5561 172.074 72.34V72.341Z" fill="#233862"/>
<path d="M165.317 71.614C166.456 71.5431 167.6 71.6658 168.698 71.977C168.131 72.0571 167.554 72.0439 166.991 71.938C166.419 71.9192 165.854 71.8095 165.317 71.613V71.614Z" fill="#233862"/>
<path d="M158.561 70.882C159.128 70.802 159.705 70.8151 160.268 70.921C160.832 70.9421 161.39 71.0518 161.92 71.246C160.781 71.317 159.637 71.1942 158.539 70.883L158.561 70.882Z" fill="#233862"/>
<path d="M123.161 61.554C123.122 62.215 123.106 62.881 123.106 63.554C123.104 66.1693 123.368 68.778 123.893 71.34V71.417C123.959 71.736 124.036 72.05 124.113 72.364C124.413 73.608 124.768 74.836 125.165 76.048C125.215 76.197 125.265 76.348 125.319 76.5C126.74 76.181 130.858 72.613 135.599 68.158L125.776 59.348C125.024 60.2147 124.142 60.959 123.161 61.554Z" fill="#EAAB75"/>
<path d="M185.173 4.36502C185.514 8.16502 189.848 11.375 193.673 11.259C195.773 11.193 197.907 10.259 199.928 10.841C203.32 11.827 204.691 16.557 208.188 17.19C210.788 17.664 213.182 15.538 215.82 15.417C217.776 15.4708 219.661 16.1567 221.194 17.372C222.708 18.577 224.374 19.5766 226.15 20.345C227.967 20.967 229.674 19.866 231.53 19.299C231.987 20.477 232.29 21.931 232.879 23.153C233.468 24.375 234.179 26.639 233.138 27.123C233.138 27.123 230.214 28.637 228.524 28.555C229.207 29.2436 230.059 29.7396 230.995 29.993C231.931 30.2464 232.917 30.2481 233.854 29.998C234.322 32.828 234.674 36.098 232.754 38.225C231.857 39.1483 230.71 39.7896 229.454 40.07C223.32 41.656 216.905 37.37 210.677 38.534C208.122 39.019 205.777 40.395 203.199 40.734C201.925 40.8918 200.633 40.7933 199.398 40.4444C198.163 40.0954 197.011 39.503 196.008 38.702C193.552 36.714 191.862 33.388 188.745 32.865C187.343 32.7472 185.932 32.9352 184.61 33.416C183.288 33.8979 181.87 34.053 180.475 33.868C179.781 33.7592 179.145 33.4166 178.672 32.8968C178.199 32.3771 177.918 31.7114 177.875 31.01" fill="#233862"/>
<path d="M172.993 41.318C173.681 37.464 174.474 33.46 174.474 33.46C174.474 33.46 179.562 33.51 181.726 27.238C183.785 21.258 185.272 6.864 185.272 6.864C182.008 4.83224 178.201 3.84853 174.362 4.04519C170.523 4.24184 166.836 5.60942 163.797 7.964L158.726 39.213C158.609 40.1049 158.671 41.0112 158.907 41.8792C159.144 42.7471 159.551 43.5592 160.104 44.2684C160.657 44.9776 161.346 45.5697 162.131 46.0101C162.915 46.4506 163.779 46.7306 164.673 46.834C166.504 47.1702 168.394 46.7832 169.946 45.7545C171.497 44.7258 172.59 43.1355 172.993 41.318Z" fill="#EAAB75"/>
<path d="M181.468 17.646C181.433 17.8618 181.314 18.0553 181.138 18.1849C180.962 18.3146 180.743 18.3703 180.526 18.34C180.418 18.331 180.313 18.3003 180.218 18.2497C180.122 18.1991 180.038 18.1296 179.97 18.0455C179.902 17.9614 179.852 17.8643 179.822 17.7603C179.793 17.6562 179.785 17.5473 179.799 17.44C179.835 17.2238 179.955 17.0303 180.132 16.9007C180.308 16.7711 180.529 16.7156 180.746 16.746C180.853 16.7557 180.957 16.787 181.052 16.838C181.147 16.8889 181.231 16.9585 181.298 17.0426C181.365 17.1266 181.415 17.2234 181.444 17.3271C181.473 17.4307 181.481 17.5392 181.467 17.646H181.468Z" fill="#263238"/>
<path opacity="0.67" d="M182.971 16.958C182.85 17.046 182.305 16.473 181.413 16.319C180.521 16.165 179.794 16.49 179.713 16.369C179.632 16.248 179.813 16.132 180.132 15.978C180.565 15.7766 181.05 15.7151 181.52 15.802C181.981 15.8859 182.404 16.111 182.731 16.446C182.971 16.705 183.031 16.914 182.971 16.958Z" fill="#233862"/>
<path d="M172.327 16.198C172.29 16.4142 172.171 16.6077 171.994 16.7373C171.817 16.8669 171.597 16.9224 171.38 16.892C171.273 16.8823 171.168 16.851 171.074 16.8C170.979 16.7491 170.895 16.6795 170.828 16.5955C170.761 16.5114 170.711 16.4147 170.682 16.311C170.653 16.2073 170.645 16.0988 170.659 15.992C170.695 15.7758 170.815 15.5823 170.991 15.4527C171.168 15.3231 171.389 15.2676 171.606 15.298C171.713 15.3077 171.817 15.339 171.912 15.39C172.007 15.4409 172.091 15.5105 172.158 15.5946C172.225 15.6786 172.275 15.7754 172.304 15.8791C172.333 15.9828 172.341 16.0912 172.327 16.198Z" fill="#263238"/>
<g opacity="0.67">
<path opacity="0.67" d="M173.627 15.642C173.506 15.73 172.961 15.157 172.069 15.003C171.177 14.849 170.45 15.179 170.369 15.053C170.288 14.927 170.469 14.822 170.793 14.662C171.225 14.4654 171.708 14.4057 172.175 14.491C172.639 14.5699 173.066 14.7957 173.392 15.135C173.627 15.394 173.687 15.603 173.627 15.642Z" fill="#233862"/>
</g>
<path d="M175.691 22.817C176.186 22.7537 176.688 22.7537 177.183 22.817C177.414 22.817 177.64 22.817 177.706 22.679C177.765 22.4476 177.753 22.2039 177.673 21.979C177.557 21.39 177.436 20.773 177.304 20.129C176.938 18.5509 176.7 16.9456 176.594 15.329C177.084 16.8745 177.451 18.456 177.694 20.059C177.81 20.703 177.925 21.32 178.03 21.909C178.127 22.2085 178.113 22.5328 177.991 22.823C177.944 22.8972 177.881 22.96 177.807 23.0067C177.732 23.0534 177.648 23.0829 177.561 23.093C177.428 23.108 177.294 23.108 177.161 23.093C176.659 23.0606 176.163 22.9662 175.685 22.812L175.691 22.817Z" fill="#263238"/>
<path d="M174.452 33.456C171.404 32.9593 168.554 31.625 166.22 29.602C166.22 29.602 167.536 34.402 174.1 34.932L174.452 33.456Z" fill="#C38F65"/>
<g opacity="0.39">
<path opacity="0.39" d="M174.936 24.894C174.802 24.6526 174.61 24.4485 174.377 24.3004C174.145 24.1522 173.878 24.0648 173.603 24.046C173.405 24.0306 173.205 24.0548 173.017 24.1171C172.828 24.1794 172.653 24.2786 172.503 24.409C172.358 24.537 172.255 24.7068 172.21 24.895C172.165 25.0833 172.179 25.281 172.25 25.461C172.365 25.6426 172.53 25.7867 172.725 25.8756C172.921 25.9644 173.138 25.9941 173.35 25.961C173.795 25.8832 174.221 25.7206 174.605 25.482C174.718 25.4277 174.819 25.3531 174.905 25.262C174.946 25.2187 174.973 25.1642 174.983 25.1054C174.993 25.0466 174.985 24.9863 174.96 24.932" fill="#C38F65"/>
</g>
<path d="M172.993 22.972C173.142 22.972 172.993 23.952 173.676 24.784C174.359 25.616 175.433 25.693 175.416 25.83C175.399 25.967 175.152 25.973 174.716 25.913C174.149 25.8211 173.633 25.5326 173.257 25.098C172.894 24.6801 172.71 24.1363 172.745 23.584C172.751 23.172 172.899 22.949 172.993 22.972Z" fill="#263238"/>
<path d="M168.164 3.35202C169.887 7.15202 175.471 11.782 179.788 13.423C179.388 12.641 176.969 10.433 176.578 9.65101C178.318 11.54 180.834 14.106 183.494 14.751C183.8 14.8526 184.129 14.8623 184.441 14.779C184.613 14.6912 184.762 14.5651 184.878 14.4105C184.993 14.2558 185.072 14.0767 185.107 13.887C185.623 11.9691 185.929 10.001 186.021 8.01702C186.112 6.34318 185.561 4.69771 184.479 3.41701C183.009 1.76501 180.625 0.972016 178.301 0.477016C176.389 -0.0163891 174.398 -0.128522 172.442 0.147014C171.528 0.259313 170.657 0.601546 169.91 1.14174C169.164 1.68194 168.567 2.40246 168.175 3.23601" fill="#233862"/>
<path d="M157.873 17.674C157.841 16.2037 157.896 14.7328 158.038 13.269C158.473 9.91001 159.525 -2.297 170.791 0.841004L169.591 3.97401C169.591 3.97401 170.456 11.832 164.674 16.049C164.674 16.049 164.702 23.896 160.693 26.726C160.693 26.726 157.901 21.407 157.874 17.696" fill="#233862"/>
<path d="M164.915 15.503C164.25 15.2336 163.523 15.1516 162.815 15.266C162.106 15.3885 161.474 15.7833 161.053 16.366C160.671 16.9798 160.535 17.7153 160.673 18.425C160.815 19.1295 161.112 19.7936 161.543 20.369C161.821 20.8016 162.198 21.1621 162.643 21.421C162.87 21.543 163.123 21.6069 163.381 21.6069C163.638 21.6069 163.892 21.543 164.119 21.421" fill="#EAAB75"/>
<path d="M163.794 19.612C163.866 19.651 163.494 20.012 162.894 19.733C162.736 19.6471 162.597 19.5309 162.485 19.391C162.372 19.2511 162.289 19.0904 162.239 18.918C162.111 18.5296 162.063 18.1195 162.096 17.712C162.119 17.2762 162.299 16.8634 162.603 16.55C162.73 16.4151 162.886 16.3112 163.059 16.2463C163.233 16.1815 163.419 16.1574 163.603 16.176C164.258 16.276 164.379 16.76 164.303 16.76C164.09 16.6211 163.841 16.5484 163.587 16.551C163.311 16.6058 163.063 16.7573 162.888 16.9784C162.713 17.1994 162.623 17.4755 162.634 17.757C162.579 18.049 162.592 18.3496 162.671 18.636C162.75 18.9223 162.894 19.1867 163.091 19.409C163.434 19.634 163.764 19.546 163.794 19.612Z" fill="#C38F65"/>
<path d="M230.149 16.027C230.075 16.1932 229.973 16.3459 229.849 16.479C229.488 16.8616 229.023 17.1297 228.511 17.25C227.698 17.4534 226.842 17.3935 226.066 17.079C225.069 16.6396 224.142 16.0572 223.313 15.35C222.345 14.4901 221.197 13.8562 219.954 13.494C219.253 13.3616 218.532 13.3917 217.845 13.582C217.112 13.7954 216.402 14.0811 215.725 14.435C215.025 14.793 214.304 15.189 213.525 15.535C212.747 15.9165 211.901 16.1411 211.036 16.196C210.123 16.2263 209.225 15.9661 208.47 15.453C207.724 14.9106 207.073 14.2483 206.543 13.493C205.612 11.9881 204.491 10.6099 203.206 9.39301C202.554 8.88074 201.776 8.55361 200.954 8.44601C200.159 8.35488 199.355 8.38862 198.57 8.54601C197.028 8.83201 195.586 9.32201 194.165 9.50401C192.847 9.6633 191.51 9.54718 190.239 9.16301C188.395 8.61409 186.747 7.55003 185.487 6.09601C185.023 5.57438 184.635 4.98954 184.336 4.35901C184.369 4.39115 184.397 4.42826 184.419 4.46901C184.474 4.56301 184.546 4.66901 184.634 4.81001C185.945 6.84346 187.958 8.3248 190.289 8.97301C191.539 9.33894 192.851 9.4411 194.143 9.27301C195.531 9.08601 196.962 8.59001 198.548 8.29301C199.359 8.12114 200.192 8.08196 201.015 8.17701C201.884 8.28829 202.707 8.6305 203.399 9.16801C204.707 10.3993 205.85 11.7949 206.799 13.32C207.308 14.0503 207.935 14.6905 208.655 15.214C209.36 15.6965 210.201 15.9417 211.055 15.914C211.886 15.8627 212.698 15.6476 213.445 15.281C214.199 14.951 214.91 14.56 215.62 14.181C216.314 13.8181 217.042 13.5266 217.795 13.311C218.513 13.1174 219.265 13.089 219.995 13.228C221.27 13.6085 222.444 14.2689 223.431 15.161C224.239 15.8657 225.144 16.4515 226.118 16.901C226.863 17.2137 227.686 17.2888 228.475 17.116C228.972 17.006 229.43 16.7642 229.802 16.416C229.928 16.2964 230.044 16.1662 230.149 16.027Z" fill="#233862"/>
<path d="M103.327 125.411L93.335 145.559L96.314 145.669L87.856 161.681H92.3L85.365 175.901H124.124L115.595 161.681L119.681 161.505L111.504 145.505L114.527 145.323L103.327 125.411Z" fill="#97ADEF"/>
<path d="M105.011 148.791C105.094 148.791 105.011 157.326 104.879 167.848C104.747 178.37 104.532 186.9 104.455 186.9C104.378 186.9 104.455 178.365 104.593 167.843C104.731 157.321 104.934 148.791 105.011 148.791Z" fill="#35488B"/>
<path d="M109.764 153.961C109.611 154.284 109.409 154.582 109.164 154.842C108.62 155.504 108.039 156.135 107.424 156.731C106.724 157.441 106.08 158.075 105.634 158.554C105.41 158.83 105.159 159.082 104.885 159.308C105.036 158.983 105.237 158.684 105.48 158.421C106.027 157.762 106.608 157.131 107.22 156.532C107.93 155.822 108.569 155.188 109.02 154.709C109.24 154.433 109.489 154.182 109.764 153.961Z" fill="#35488B"/>
<path d="M104.917 159.512C104.133 159.072 103.396 158.554 102.717 157.965C101.974 157.445 101.288 156.848 100.669 156.186C101.453 156.625 102.191 157.143 102.869 157.733C103.612 158.252 104.299 158.848 104.917 159.512Z" fill="#35488B"/>
<path d="M104.654 169.396C103.79 168.784 102.961 168.124 102.171 167.419C101.32 166.787 100.505 166.107 99.7319 165.382C100.675 165.878 101.556 166.487 102.353 167.194C103.208 167.83 103.98 168.569 104.653 169.394L104.654 169.396Z" fill="#35488B"/>
<path d="M110.176 163.284C109.414 164.435 108.521 165.494 107.516 166.439L105.506 168.539C105.252 168.852 104.966 169.138 104.653 169.392C105.415 168.241 106.307 167.182 107.313 166.237L109.323 164.137C109.578 163.823 109.864 163.535 110.176 163.278V163.284Z" fill="#35488B"/>
</svg>
