<svg width="100" height="22" viewBox="0 0 100 22" fill="none" xmlns="http://www.w3.org/2000/svg">
<path d="M11.3391 10.6771C11.1174 10.5592 10.8894 10.454 10.6562 10.3622C10.3959 10.2578 10.1185 10.1621 9.82661 10.0768C9.5304 9.98834 9.23002 9.91517 8.92662 9.85759C8.63217 9.80123 8.33336 9.77218 8.03381 9.77078C7.35522 9.77078 6.86929 9.90418 6.576 10.171C6.4372 10.2895 6.32587 10.4381 6.25003 10.606C6.1742 10.774 6.13576 10.957 6.1375 11.142C6.13298 11.3246 6.16953 11.5058 6.24431 11.6716C6.3191 11.8374 6.43012 11.9834 6.56881 12.0983C6.92445 12.3863 7.31019 12.633 7.71896 12.834C8.22275 13.0795 8.7115 13.3561 9.18253 13.6623C9.57316 13.9129 9.92579 14.2207 10.2292 14.576C10.5062 14.9049 10.7194 15.2849 10.8574 15.6956C11.0039 16.1587 11.0743 16.6434 11.0659 17.1301C11.0622 17.7284 10.944 18.3202 10.718 18.8721C10.4676 19.4834 10.0782 20.0246 9.58221 20.4508C8.97567 20.9601 8.27638 21.3412 7.52487 21.5719C6.67376 21.8573 5.63 22 4.39358 22C4.03991 22 3.66324 21.9809 3.26356 21.9427C2.86388 21.9044 2.46851 21.8485 2.07746 21.7749C1.68785 21.7087 1.31261 21.6278 0.956064 21.5322C0.631351 21.4504 0.312023 21.3477 0 21.2247L0.655587 17.7848C0.927633 17.9323 1.20691 18.0654 1.49232 18.1835C2.17544 18.471 2.88622 18.684 3.61292 18.8191C3.98512 18.8901 4.36289 18.9261 4.7415 18.9265C5.4383 18.9265 5.95683 18.803 6.29708 18.5558C6.45886 18.4447 6.59042 18.2935 6.67944 18.1162C6.76846 17.9389 6.81202 17.7413 6.80603 17.5421C6.80709 17.3652 6.77312 17.1899 6.70616 17.0268C6.63919 16.8637 6.54063 16.7161 6.41641 16.5931C6.15475 16.3214 5.7038 16.0335 5.06355 15.7295C4.57821 15.4978 4.10976 15.2308 3.6618 14.9306C3.28086 14.6754 2.93595 14.368 2.63672 14.0169C2.36251 13.6888 2.15086 13.311 2.01277 12.9031C1.86734 12.457 1.79638 11.9889 1.80286 11.5187C1.80857 10.9448 1.91523 10.3766 2.11772 9.8414C2.34118 9.24341 2.69639 8.70621 3.15573 8.27155C3.71162 7.75674 4.36419 7.36326 5.07361 7.11513C5.86913 6.81499 6.8482 6.66492 8.01081 6.66492C8.36305 6.66492 8.72966 6.68257 9.0977 6.71494C9.46575 6.74731 9.83236 6.79439 10.186 6.85177C10.5397 6.90915 10.8733 6.97536 11.1924 7.05039C11.5116 7.12543 11.7876 7.19752 12.0292 7.27991L11.3391 10.6771Z" fill="#48CC11"/>
<path d="M28.5368 10.5049C28.5333 10.6958 28.5193 10.8864 28.4951 11.0758C28.4664 11.3141 28.4319 11.5613 28.3902 11.8114C28.3485 12.0615 28.3039 12.3175 28.2579 12.5603C28.2119 12.803 28.1688 13.0105 28.1314 13.1812L26.3889 21.6307H21.9666L23.6832 13.2959C23.7392 12.9914 23.7939 12.6765 23.8499 12.3528C23.8971 12.1103 23.9249 11.8643 23.9333 11.6172C23.9333 11.1405 23.8154 10.7727 23.5782 10.5108C23.341 10.2489 22.9945 10.118 22.5388 10.118C22.1322 10.1306 21.7358 10.2513 21.3886 10.4681C20.9618 10.7191 20.5741 11.034 20.2385 11.4024C19.8586 11.8165 19.5302 12.277 19.2608 12.7736C18.9739 13.2947 18.7674 13.858 18.6484 14.4435L17.169 21.6366H12.7122L17.1978 9.40846e-08H18.3019C18.7052 -0.000107499 19.1035 0.0920671 19.4675 0.26978C19.8316 0.447492 20.1522 0.706246 20.4059 1.02711C20.6596 1.34797 20.8401 1.72283 20.934 2.12425C21.0279 2.52567 21.0329 2.94349 20.9487 3.34715L19.5958 9.83401H19.6519C19.994 9.37986 20.3745 8.95744 20.7891 8.57166C21.1918 8.19382 21.6311 7.85908 22.1003 7.57266C22.5487 7.29966 23.0256 7.07905 23.5222 6.915C23.986 6.75754 24.4711 6.67562 24.9598 6.67224C26.1234 6.67224 27.009 7.00328 27.6167 7.66535C28.2244 8.32743 28.5311 9.27395 28.5368 10.5049Z" fill="#48CC11"/>
<path d="M44.1372 16.8138C44.071 17.108 44.0092 17.4655 43.9488 17.8848C43.8884 18.3042 43.8324 18.7382 43.7806 19.1899C43.7289 19.6416 43.6886 20.0844 43.6555 20.514C43.6225 20.9436 43.6067 21.3203 43.6067 21.6337H40.957C40.7196 21.6337 40.4848 21.5827 40.2678 21.4841C40.0509 21.3855 39.8565 21.2414 39.6973 21.0612C39.5382 20.881 39.4177 20.6686 39.3437 20.4377C39.2697 20.2069 39.2438 19.9627 39.2677 19.721C39.2907 19.4974 39.3123 19.3105 39.331 19.1575H39.2749C39.0046 19.5283 38.7257 19.8853 38.4382 20.2286C38.1527 20.5681 37.8294 20.8723 37.4749 21.1349C37.1136 21.4006 36.7171 21.6122 36.2974 21.7631C35.8142 21.9277 35.3072 22.0073 34.7979 21.9985C34.1549 22.0111 33.517 21.8795 32.9289 21.6131C32.39 21.3603 31.9185 20.9782 31.5545 20.4993C31.1605 19.9692 30.8714 19.3655 30.7034 18.722C30.5003 17.9475 30.4035 17.1477 30.4158 16.3459C30.4239 15.7932 30.472 15.242 30.5596 14.6966C30.6701 13.9939 30.8478 13.304 31.0901 12.6368C31.3634 11.8833 31.7214 11.1649 32.1569 10.4961C32.6356 9.76574 33.227 9.11978 33.908 8.58344C34.6856 7.97692 35.5576 7.50888 36.4872 7.19896C37.4965 6.84684 38.6845 6.67078 40.0512 6.67078C40.5813 6.67078 41.1137 6.69235 41.6485 6.73551C42.1833 6.77867 42.7105 6.83605 43.23 6.90765C43.7456 6.97827 44.2455 7.06116 44.7295 7.1563C45.2135 7.25144 45.6645 7.34658 46.0824 7.44173L44.1372 16.8138ZM40.4265 9.86933C40.1663 9.84579 39.9204 9.83402 39.6875 9.83402C39.1087 9.82199 38.5338 9.93373 37.9997 10.1621C37.5332 10.3699 37.106 10.6597 36.7374 11.0184C36.3786 11.3673 36.0732 11.7696 35.8316 12.2116C35.5961 12.6455 35.4035 13.1024 35.2565 13.5755C35.1169 14.0154 35.0145 14.4668 34.9503 14.9246C34.893 15.3069 34.8622 15.6929 34.8583 16.0796C34.8563 16.4088 34.8915 16.7371 34.9633 17.058C35.0244 17.336 35.1356 17.5999 35.2911 17.8363C35.4336 18.0485 35.622 18.2242 35.8417 18.3498C36.0756 18.4771 36.3374 18.5409 36.6022 18.5352C37.112 18.5418 37.6097 18.3763 38.0184 18.0643C38.448 17.7317 38.8161 17.3231 39.1052 16.8579C39.43 16.3403 39.6926 15.7846 39.8873 15.2027C40.0916 14.6085 40.2625 14.0028 40.3992 13.3886L41.1381 9.97673C40.9008 9.92645 40.6608 9.89059 40.4193 9.86933H40.4265Z" fill="#48CC11"/>
<path d="M54.8969 21.638H49.9872L48.1052 7.02235H52.4988L53.0739 15.1144C53.0926 15.2953 53.1098 15.5131 53.1228 15.7706C53.1357 16.028 53.1486 16.2943 53.1587 16.5695C53.1688 16.8446 53.1745 17.1197 53.1788 17.3904C53.184 17.626 53.1773 17.8618 53.1587 18.0966H53.2133C53.2881 17.8966 53.3758 17.6759 53.4793 17.4331C53.5828 17.1903 53.6878 16.9388 53.7999 16.6769C53.9121 16.415 54.0242 16.1531 54.1406 15.8912C54.2571 15.6293 54.3664 15.3807 54.4684 15.1423L58.3042 7.02087H63.1578L54.8969 21.638Z" fill="#48CC11"/>
<path d="M76.1113 10.7904C76.1184 11.5086 75.9582 12.2182 75.644 12.8604C75.3325 13.4892 74.8116 14.0316 74.0812 14.4877C73.3509 14.9438 72.3819 15.3028 71.1742 15.5647C69.9646 15.8265 68.4579 15.9737 66.6541 16.006C66.6376 16.0533 66.6284 16.103 66.6268 16.1532V16.2885C66.6291 16.5887 66.6777 16.8866 66.7706 17.1713C66.8671 17.4728 67.0322 17.7466 67.2522 17.9702C67.5077 18.2267 67.8142 18.4239 68.1508 18.5484C68.5986 18.7082 69.0712 18.7829 69.5453 18.7691C69.9123 18.7664 70.2785 18.7355 70.6408 18.6764C71.0481 18.6121 71.4509 18.5217 71.8471 18.4057C72.261 18.285 72.6684 18.1421 73.0677 17.9775C73.4536 17.8202 73.8287 17.6363 74.1905 17.4273L73.5076 20.7965C73.1858 20.9626 72.8551 21.11 72.517 21.2379C71.6813 21.5558 70.8132 21.7765 69.9292 21.8956C69.432 21.9627 68.9311 21.9961 68.4297 21.9956C67.3514 21.9956 66.4265 21.8338 65.6549 21.5101C64.9348 21.2221 64.2851 20.7762 63.7514 20.2036C63.2535 19.656 62.8795 19.003 62.6559 18.2909C62.4194 17.5344 62.3015 16.7444 62.3066 15.9501C62.3007 14.7381 62.5066 13.5348 62.9147 12.397C63.2984 11.3077 63.8842 10.3045 64.6399 9.44267C65.4266 8.55192 66.39 7.84332 67.4658 7.36428C68.5416 6.88524 69.705 6.6468 70.8781 6.6649C71.6902 6.64628 72.5 6.76204 73.2761 7.00771C73.8744 7.19771 74.4283 7.51117 74.9036 7.92873C75.3058 8.29174 75.6207 8.7449 75.8237 9.25288C76.0156 9.74158 76.1132 10.2637 76.1113 10.7904ZM71.9132 10.8477C71.9171 10.6807 71.8846 10.5148 71.8183 10.3622C71.7519 10.2095 71.6532 10.0739 71.5293 9.96497C71.2734 9.73251 70.913 9.61628 70.4482 9.61628C70.0404 9.61563 69.6377 9.70812 69.2693 9.887C68.8854 10.0736 68.5362 10.327 68.237 10.6359C67.9144 10.9721 67.6443 11.3572 67.4362 11.7776C67.2086 12.2315 67.0394 12.7137 66.933 13.2121C68.6065 13.2307 69.8549 13.0345 70.6782 12.6236C71.5015 12.2126 71.9132 11.6207 71.9132 10.8477Z" fill="#48CC11"/>
<path d="M87.8961 11.1817H87.8687C87.6312 11.0574 87.3816 10.9588 87.124 10.8874C86.8496 10.8062 86.5657 10.7631 86.2801 10.7594C85.7636 10.7513 85.2541 10.8817 84.8021 11.1375C84.3551 11.3976 83.9616 11.7438 83.6434 12.1571C83.2932 12.6152 83.0094 13.1226 82.8009 13.6637C82.5666 14.2582 82.3819 14.872 82.2488 15.4984L80.9937 21.6351H76.5369L78.4893 12.3145C78.5827 11.8732 78.6733 11.4068 78.761 10.9301C78.8487 10.4534 78.9335 9.98551 79.0126 9.525C79.0916 9.06449 79.1563 8.61869 79.221 8.19055C79.2857 7.76241 79.3303 7.37105 79.3648 7.01353H81.3862C81.6842 7.01358 81.9787 7.0792 82.2498 7.20593C82.5208 7.33267 82.7621 7.51755 82.9572 7.74806C83.1523 7.97857 83.2967 8.24931 83.3806 8.54194C83.4645 8.83456 83.486 9.14223 83.4435 9.44408C83.4429 9.45044 83.4429 9.45684 83.4435 9.46321L83.3659 9.97668H83.422C84.0095 8.86243 84.6282 8.02871 85.278 7.47551C85.9071 6.94077 86.7032 6.65561 87.5208 6.67219C87.7371 6.67639 87.9526 6.70002 88.1649 6.74281C88.3964 6.7899 88.6063 6.82815 88.7917 6.85757L87.8961 11.1817Z" fill="#48CC11"/>
<path d="M99.32 10.6771C99.0978 10.5592 98.8693 10.454 98.6357 10.3622C98.375 10.2573 98.0985 10.1621 97.8061 10.0768C97.5081 9.98797 97.2058 9.9148 96.9004 9.85757C96.606 9.80108 96.3071 9.77202 96.0076 9.77076C95.329 9.77076 94.8435 9.90416 94.5512 10.1709C94.4122 10.2894 94.3007 10.438 94.2246 10.6059C94.1485 10.7738 94.1098 10.9569 94.1113 11.142C94.1065 11.3246 94.143 11.5059 94.2178 11.6717C94.2926 11.8376 94.4037 11.9835 94.5426 12.0983C94.8979 12.3867 95.2837 12.6335 95.6927 12.834C96.197 13.0795 96.6862 13.3561 97.1577 13.6623C97.5484 13.9129 97.901 14.2207 98.2044 14.576C98.481 14.905 98.6937 15.285 98.8312 15.6956C98.9782 16.1586 99.0491 16.6433 99.0411 17.1301C99.0375 17.7286 98.9188 18.3205 98.6918 18.8721C98.443 19.4827 98.0556 20.0239 97.5617 20.4508C96.9554 20.9604 96.256 21.3415 95.5044 21.5719C94.6542 21.8573 93.6105 22 92.3731 22C92.0204 22 91.6442 21.9809 91.2445 21.9426C90.8434 21.9044 90.4495 21.8514 90.0584 21.7852C89.6674 21.719 89.2936 21.6381 88.9356 21.5424C88.6113 21.4586 88.2924 21.3539 87.981 21.2291L88.6351 17.7892C88.9078 17.9364 89.1875 18.0695 89.4733 18.1879C89.8023 18.3274 90.1382 18.4492 90.4797 18.5528C90.844 18.6637 91.2141 18.7541 91.5881 18.8235C91.9608 18.8946 92.339 18.9305 92.7181 18.9309C93.4149 18.9309 93.9335 18.8073 94.2737 18.5602C94.4355 18.4491 94.5671 18.2979 94.6561 18.1206C94.7451 17.9432 94.7887 17.7457 94.7827 17.5465C94.7835 17.3695 94.7492 17.1941 94.682 17.031C94.6148 16.8679 94.516 16.7205 94.3916 16.5975C94.1309 16.3258 93.68 16.0379 93.0388 15.7338C92.5534 15.5022 92.085 15.2352 91.637 14.9349C91.2564 14.6794 90.9115 14.3721 90.6119 14.0213C90.3366 13.6935 90.124 13.3157 89.9851 12.9075C89.839 12.4615 89.768 11.9934 89.7752 11.5231C89.7811 10.9493 89.8872 10.3813 90.0886 9.8458C90.3131 9.248 90.6687 8.71093 91.1281 8.27595C91.6837 7.76084 92.3364 7.36732 93.0459 7.11952C93.8405 6.81938 94.8191 6.66931 95.9817 6.66931C96.3354 6.66931 96.7005 6.68697 97.07 6.71933C97.4395 6.7517 97.8047 6.79878 98.1569 6.85616C98.5092 6.91354 98.8456 6.97975 99.1633 7.05479C99.481 7.12982 99.7585 7.20191 100 7.2843L99.32 10.6771Z" fill="#48CC11"/>
</svg>
